# xmcd
#
# Track frame offsets: 
#        150
#        13000
#        23027
#        33305
#        47772
#        58902
#        73525
#        86325
#        95822
#        106512
#        119180
#        131852
#        144160
#        160285
#        174165
#        187162
#        198390
#        209365
#        220355
#        229912
#        241820
#        257357
#
# Disc length: 3567 seconds
#
# Revision: 0
# Processed by: cddbd v1.5.2PL0 Copyright (c) Steve Scherf et al.
# Submitted via: ExactAudioCopy v0.99pb4
#
DISCID=3a0ded16
DTITLE=Various Artist - The Rare Soul Harmony Collection Vol.1
DYEAR=1973
DGENRE=Soul
TTITLE0=iMAGINATIONS - I Just Can't Get Over Losing You
TTITLE1=The Hollywood Saxons - Laughing Girl
TTITLE2=The Satans - What A Fool
TTITLE3=4 Count - Love Is A Song Of Love
TTITLE4=Vows - Girl In Red
TTITLE5=The Cashmeres - Ain't No Coming Back
TTITLE6=Down To Earth - Forgive Me If I Cry
TTITLE7=Executive Four - You Are
TTITLE8=Star Tones - One Rose
TTITLE9=C. Quents - Merry Christmas Baby
TTITLE10=The Magicians - Why Do I Do These Foolish Things
TTITLE11=The Four Perfections - I'll Hold On
TTITLE12=FANTASTICS! - In Times Like These
TTITLE13=Soul Procedures - Glamour Girl
TTITLE14=The Young Mods - Gloria
TTITLE15=The Service Men - Connie
TTITLE16=The Four Perfections - I'm Not Strong Enough
TTITLE17=Executive Four - I Gotta Good Thing Going And I Ain't Gonna B
TTITLE17=low It
TTITLE18=Star Tones - Lovin' You Baby
TTITLE19=iMAGINATIONS - Strange Neighborhood
TTITLE20=4 Count - A Home In Loveland
TTITLE21=Lovers - Without A Doubt
EXTD=
EXTT0=
EXTT1=
EXTT2=
EXTT3=
EXTT4=
EXTT5=
EXTT6=
EXTT7=
EXTT8=
EXTT9=
EXTT10=
EXTT11=
EXTT12=
EXTT13=
EXTT14=
EXTT15=
EXTT16=
EXTT17=
EXTT18=
EXTT19=
EXTT20=
EXTT21=
PLAYORDER=
